<?xml version="1.0" encoding="utf-8"?>
<!-- Generator: Adobe Illustrator 19.0.0, SVG Export Plug-In . SVG Version: 6.00 Build 0)  -->
<svg version="1.1" id="图层_1" xmlns="http://www.w3.org/2000/svg" xmlns:xlink="http://www.w3.org/1999/xlink" x="0px" y="0px"
	 viewBox="0 0 600 600" style="enable-background:new 0 0 600 600;" xml:space="preserve">
<style type="text/css">
	.st0{fill:#03A9F4;}
	.st1{display:none;fill:#FEFEFE;}
	.st2{fill:#FFFFFF;}
</style>
<g id="XMLID_1_">
	<circle id="XMLID_3_" class="st0" cx="300" cy="300" r="275"/>
	<path id="XMLID_2_" class="st1" d="M240.3,197.7c14.2-20.2,33.4-31.2,56.2-36.4c17.4-4,35.1-4.3,52.8-2.4
		c17.3,1.9,33.7,6.5,48.4,15.9c21.2,13.5,33.6,33.4,39.6,57.4c3.4,13.7,4.8,27.7,4.7,41.9c-0.1,41.7,0.1,83.3-0.1,125
		c-0.1,16.9-6.7,31-22.5,38.6c-15.8,7.5-31.4,6-45.3-5.2c-9.5-7.7-14.1-18.3-14.2-30.4c-0.2-38,0-76.1-0.1-114.1
		c0-10-1.6-19.8-5.5-29.1c-7.7-18.5-21.4-29.5-41.5-30.9c-22-1.5-41.7,4.2-55.8,22.6c-7.8,10.1-11.9,21.8-14.3,34.2
		c-2.6,13.2-3.1,26.5-3.1,39.9c0.1,25.5,0.4,51.1-0.1,76.6c-0.4,22.3-15,38.8-36.5,40.5c-23.5,1.9-40.8-12.3-44.1-34.7
		c-0.7-4.9-1-9.7-1-14.6c0-63.2-0.1-126.4,0.1-189.6c0.1-15.7,4.5-29.8,18.7-38.8c21.3-13.5,53.5-5.3,61.3,23.6
		C238.8,190.6,239.4,193.6,240.3,197.7z"/>
</g>
<g id="XMLID_21_">
	<path id="XMLID_20_" class="st2" d="M338.7,384.2c-5.6-49-11.2-98-16.9-147.7c4.9,0.5,9.5,1,14.1,1.3c15.4,1.3,30.7,3.1,46.1,3.6
		c14.1,0.4,28.2-1.4,41.6-6.7c3.9-1.6,7.7-3.5,11.1-5.9c10-7,13-15.8,9.7-27.5c-4.1-14.3-13.2-25.4-23.5-35.5
		c-5.7-5.5-12-10.4-17.6-16.1c-10.8-10.9-13.9-18.7-8.9-33.7c0.3-0.9,0.8-1.8,1.2-2.7c0.3,0.1,0.6,0.1,0.9,0.2
		c-0.1,1.6-0.1,3.2-0.4,4.8c-2.1,11.5,3.1,19.1,12.6,25c10.4,6.5,20.7,13.2,30.4,20.7c11.6,8.9,21.2,19.8,26.6,33.8
		c7.5,19.6,3.3,37-10.8,52.1c-12.5,13.5-28.7,21-45.9,26.5c-16.3,5.2-33.1,7.9-50.1,9.2c-2.5,0.2-3.5,1.1-3.8,3.4
		c-4,24.5-8.1,49-12.1,73.6c-1.2,7.2-2.4,14.5-3.6,21.7C339,384.3,338.9,384.3,338.7,384.2z"/>
	<path id="XMLID_19_" class="st2" d="M203.4,113.7c6.1,7.3,6.2,19.8,0.2,27.8c-3.2,4.3-7.1,8.1-11.1,11.6
		c-10.5,9.2-20.6,18.7-28.4,30.4c-4.7,7.1-8.7,14.6-9.6,23.4c-0.8,8,1.9,14.5,7.8,19.6c8.1,7.1,18,10.2,28.3,12.3
		c18.1,3.6,36.2,3.1,54.4,1c10.9-1.3,21.8-2.3,33.1-3.5c-5.7,49.5-11.3,98.6-16.9,147.7c-0.2,0-0.3,0-0.5,0.1c-0.9-5-1.7-10-2.6-15
		c-2.5-15.1-5-30.1-7.5-45.2c-1.9-11.6-3.9-23.2-5.6-34.8c-0.4-2.8-1.4-3.3-4-3.5c-21.6-1.7-42.8-5.5-62.9-13.9
		c-12.7-5.3-24.4-12.2-33.8-22.6c-15.4-17.2-17.8-38.5-6.5-58.6c7-12.6,17-22.5,28.7-30.8c8.1-5.8,16.7-10.9,25.1-16.4
		c5.4-3.6,10.8-7.5,11.9-14.4c0.6-3.8,0.2-7.9,0.2-11.8C203.8,115.9,203.6,114.8,203.4,113.7z"/>
	<path id="XMLID_4_" class="st2" d="M335.5,458.4c-3.2,14.4-16,27.9-35.5,28.1c-19.5-0.2-32.4-13.8-35.5-28.1
		c-3.7-17,5.5-35.7,20.6-40.1c-0.9,1.5-1.5,3.3-2.7,4.3c-9.6,7.7-13.7,19.7-10.4,31.3c3.2,11.2,12.9,19.3,24.8,20.8
		c1.1,0.1,2.1,0.2,3.2,0.2c1.1,0,2.1-0.1,3.2-0.2c11.9-1.4,21.7-9.6,24.8-20.8c3.3-11.6-0.8-23.7-10.4-31.3c-1.2-1-1.8-2.9-2.7-4.3
		C330,422.7,339.3,441.5,335.5,458.4z"/>
</g>
<g id="XMLID_5_">
</g>
<g id="XMLID_6_">
</g>
<g id="XMLID_7_">
</g>
<g id="XMLID_8_">
</g>
<g id="XMLID_9_">
</g>
<g id="XMLID_10_">
</g>
<g id="XMLID_11_">
</g>
<g id="XMLID_12_">
</g>
<g id="XMLID_13_">
</g>
<g id="XMLID_14_">
</g>
<g id="XMLID_15_">
</g>
<g id="XMLID_16_">
</g>
<g id="XMLID_17_">
</g>
<g id="XMLID_18_">
</g>
<g id="XMLID_22_">
</g>
</svg>
