<?xml version="1.0" encoding="utf-8"?>
<!-- Generator: Adobe Illustrator 19.0.0, SVG Export Plug-In . SVG Version: 6.00 Build 0)  -->
<svg version="1.1" id="图层_1" xmlns="http://www.w3.org/2000/svg" xmlns:xlink="http://www.w3.org/1999/xlink" x="0px" y="0px"
	 viewBox="0 0 600 600" style="enable-background:new 0 0 600 600;" xml:space="preserve">
<style type="text/css">
	.st0{fill:#03A9F4;}
	.st1{display:none;fill:#FEFEFE;}
	.st2{fill:#FFFFFF;}
</style>
<g id="XMLID_1_">
	<circle id="XMLID_3_" class="st0" cx="300" cy="300" r="275"/>
	<path id="XMLID_2_" class="st1" d="M240.3,197.7c14.2-20.2,33.4-31.2,56.2-36.4c17.4-4,35.1-4.3,52.8-2.4
		c17.3,1.9,33.7,6.5,48.4,15.9c21.2,13.5,33.6,33.4,39.6,57.4c3.4,13.7,4.8,27.7,4.7,41.9c-0.1,41.7,0.1,83.3-0.1,125
		c-0.1,16.9-6.7,31-22.5,38.6c-15.8,7.5-31.4,6-45.3-5.2c-9.5-7.7-14.1-18.3-14.2-30.4c-0.2-38,0-76.1-0.1-114.1
		c0-10-1.6-19.8-5.5-29.1c-7.7-18.5-21.4-29.5-41.5-30.9c-22-1.5-41.7,4.2-55.8,22.6c-7.8,10.1-11.9,21.8-14.3,34.2
		c-2.6,13.2-3.1,26.5-3.1,39.9c0.1,25.5,0.4,51.1-0.1,76.6c-0.4,22.3-15,38.8-36.5,40.5c-23.5,1.9-40.8-12.3-44.1-34.7
		c-0.7-4.9-1-9.7-1-14.6c0-63.2-0.1-126.4,0.1-189.6c0.1-15.7,4.5-29.8,18.7-38.8c21.3-13.5,53.5-5.3,61.3,23.6
		C238.8,190.6,239.4,193.6,240.3,197.7z"/>
</g>
<g id="XMLID_18_">
	<path id="XMLID_33_" class="st2" d="M200,266.7c1.2,1.1,3,1.5,4.6,1.2c1.7-0.3,3.1-1.5,3.8-3c0.3-0.6,3.3-5.9,13.5-4.9
		c13.1,1.2,21.6,7.1,21.7,7.1c0.9,0.7,2,1,3.1,1c1.3,0,2.6-0.5,3.6-1.4l32.4-29.7c1.8-1.6,2.2-4.2,1.2-6.4l-13.6-27.1
		c14.1-23.9,42.5-25.8,51-25.8c1.1,0,1.8,0.1,2.3,0.1l6.7-0.1c2.2,0,4.2-1.4,5-3.5c0.8-2.1,0.2-4.4-1.4-5.9
		c-14.2-13-31.8-19.5-52.4-19.5c-41.1,0-83.7,27.2-92.3,45.6c-10.2,21.7-23.1,34.7-23.2,34.9c-1.1,1.1-1.6,2.5-1.6,4
		c0,1.5,0.7,2.9,1.8,3.9L200,266.7z M200,266.7"/>
	<path id="XMLID_30_" class="st2" d="M173.1,301.8c1,0.8,2.2,1.3,3.5,1.3c0.2,0,0.3,0,0.5,0c1.4-0.1,2.8-0.8,3.7-1.9l18.9-22.9
		c1.8-2.3,1.6-5.6-0.6-7.5l-35.1-31c-1.1-1-2.4-1.4-3.9-1.3c-1.4,0.1-2.8,0.8-3.7,1.8l-20.2,22.9c-0.9,1.1-1.4,2.5-1.3,4
		c0.1,1.4,0.8,2.8,1.9,3.7L173.1,301.8z M173.1,301.8"/>
	<path id="XMLID_24_" class="st2" d="M464,400.2c-0.3-0.7-0.7-1.3-1.2-1.8L370.5,310L333,273.4l77.3-71.5l3.9,3.9
		c1,1,2.4,1.6,3.8,1.6c0.1,0,0.2,0,0.2,0c1.5-0.1,2.9-0.7,3.9-1.9l28.5-33.8c0.9-1.1,1.4-2.6,1.3-4c-0.2-1.4-0.9-2.8-2-3.7
		l-10.6-8.5c-1.9-1.6-4.8-1.6-6.7,0l-33.5,26.8c-1.2,1-1.9,2.4-2,3.9c-0.1,1.5,0.5,3,1.6,4.1l4,4l-77.4,71.6l-28.6-27.9
		c-2-1.9-5.2-2-7.3-0.2l-37.1,32.3c-1.1,1-1.8,2.3-1.8,3.8c-0.1,1.5,0.5,2.9,1.4,4l28,29.9l-3.5,3.3l-13.6-13.8
		c-2-2-5.2-2.1-7.4-0.3L137.5,398.3c-0.6,0.5-1.1,1.2-1.4,1.9c-3.9,9.1,1.7,23.5,14.1,35.9c9.4,9.4,20.6,15.2,29.3,15.2
		c3,0,5.7-0.7,7.9-2c0.4-0.2,0.8-0.5,1.1-0.8l108.8-108.7c2.1-2.1,2.1-5.5,0-7.6l-13.4-13.5l3.3-3.1l124.2,132.7
		c0.4,0.4,0.8,0.7,1.2,1c2.3,1.3,4.9,1.9,7.9,1.9c8.7,0,19.9-5.8,29.3-15.2C462.2,423.7,467.9,409.3,464,400.2L464,400.2z
		 M153.7,409.6c-0.8,0-1.5-0.3-2.1-1c-1-1.1-0.8-2.8,0.3-3.8l99-85.8c1.1-1,2.8-0.8,3.8,0.3c1,1.1,0.9,2.8-0.3,3.8l-99,85.8
		C154.9,409.4,154.3,409.6,153.7,409.6L153.7,409.6z M167.8,423.8c-0.7,0-1.4-0.3-1.9-0.8c-1-1.1-1-2.8,0.1-3.8l93.4-90.9
		c1.1-1,2.8-1,3.8,0.1c1,1.1,1,2.8-0.1,3.8L169.7,423C169.2,423.5,168.5,423.8,167.8,423.8L167.8,423.8z M276.3,340.8l-92.4,93
		c-0.5,0.5-1.2,0.8-1.9,0.8c-0.7,0-1.4-0.3-1.9-0.8c-1.1-1.1-1.1-2.8,0-3.8l92.4-93c1.1-1.1,2.8-1.1,3.8,0
		C277.3,338.1,277.4,339.7,276.3,340.8L276.3,340.8z M276.3,340.8"/>
</g>
<g id="XMLID_4_">
</g>
<g id="XMLID_7_">
</g>
<g id="XMLID_13_">
</g>
<g id="XMLID_15_">
</g>
<g id="XMLID_16_">
</g>
<g id="XMLID_19_">
</g>
<g id="XMLID_20_">
</g>
<g id="XMLID_21_">
</g>
<g id="XMLID_22_">
</g>
<g id="XMLID_23_">
</g>
<g id="XMLID_25_">
</g>
<g id="XMLID_26_">
</g>
<g id="XMLID_27_">
</g>
<g id="XMLID_28_">
</g>
<g id="XMLID_29_">
</g>
</svg>
